<svg width="13" height="13" viewBox="0 0 13 13" fill="none" xmlns="http://www.w3.org/2000/svg">
<path d="M5.66665 0.833328C8.33605 0.833328 10.5 2.99729 10.5 5.66666C10.5 6.82126 10.0951 7.88126 9.41965 8.71253L12.6868 11.9798C12.8821 12.1751 12.8821 12.4916 12.6868 12.6869C12.5094 12.8644 12.2316 12.8805 12.0358 12.7353L11.9798 12.6869L8.71251 9.41966C7.88125 10.0951 6.82125 10.5 5.66665 10.5C2.99727 10.5 0.833313 8.33606 0.833313 5.66666C0.833313 2.99729 2.99727 0.833328 5.66665 0.833328ZM5.66665 1.83333C3.54955 1.83333 1.83331 3.54957 1.83331 5.66666C1.83331 7.78373 3.54955 9.5 5.66665 9.5C7.78371 9.5 9.49998 7.78373 9.49998 5.66666C9.49998 3.54957 7.78371 1.83333 5.66665 1.83333Z" fill="#AEAEAE"/>
</svg>
