<svg width="20" height="14" viewBox="0 0 20 14" fill="none" xmlns="http://www.w3.org/2000/svg">
<path d="M11.7489 0.5L19.3027 0.50052L19.403 0.51444L19.5018 0.54205L19.5621 0.5676C19.6413 0.60246 19.7155 0.65315 19.7808 0.71836L19.8215 0.7624L19.865 0.81878L19.9192 0.9089L19.9579 0.99922L19.977 1.0633L19.9906 1.1273L20 1.2215L20.0004 8.7539C20.0004 9.1681 19.6647 9.5039 19.2504 9.5039C18.8708 9.5039 18.557 9.2217 18.5073 8.8557L18.5004 8.7539L18.5 3.059L10.7812 10.7793C10.5149 11.0455 10.0982 11.0698 9.8046 10.8519L9.7205 10.7793L6.75001 7.8089L1.28033 13.2786C0.98744 13.5715 0.51256 13.5715 0.21967 13.2786C-0.0465996 13.0123 -0.0707998 12.5957 0.14705 12.3021L0.21967 12.2179L6.21967 6.2179C6.48593 5.9517 6.90259 5.9275 7.1962 6.1453L7.28032 6.2179L10.2508 9.1883L17.438 2H11.7489C11.3692 2 11.0554 1.71785 11.0058 1.35177L10.9989 1.25C10.9989 0.8703 11.2811 0.55651 11.6472 0.50685L11.7489 0.5Z" fill="#479951"/>
</svg>
