<svg width="16" height="21" viewBox="0 0 16 21" fill="none" xmlns="http://www.w3.org/2000/svg">
<path d="M11.2074 1.29057L15.2074 5.28634C15.5681 5.6466 15.5961 6.21375 15.2914 6.60621L15.2082 6.70046L11.2082 10.7057C10.818 11.0965 10.1848 11.0969 9.794 10.7066C9.4333 10.3464 9.4052 9.7792 9.71 9.3867L9.7931 9.2924L12.0837 6.99905L1.5 6.99906C0.98716 6.99906 0.56449 6.61302 0.50673 6.11568L0.5 5.99906C0.5 5.48622 0.88604 5.06355 1.38338 5.00579L1.5 4.99906L12.0907 4.99905L9.7939 2.70553C9.4333 2.34523 9.4052 1.77802 9.7101 1.38557L9.7932 1.29131C10.1535 0.93064 10.7207 0.90261 11.1132 1.20743L11.2074 1.29057ZM15.4907 15.8824L15.4975 15.9991C15.4975 16.5119 15.1114 16.9346 14.6141 16.9923L14.4975 16.9991L3.91368 16.999L6.2075 19.2916C6.5681 19.6519 6.5961 20.2192 6.2913 20.6116L6.2081 20.7058C5.8478 21.0665 5.28058 21.0945 4.88815 20.7896L4.7939 20.7065L0.7939 16.7103C0.43325 16.3499 0.40525 15.7827 0.71009 15.3903L0.79324 15.296L4.79324 11.2923C5.18358 10.9016 5.81674 10.9013 6.2075 11.2916C6.5681 11.6519 6.5961 12.2192 6.2913 12.6116L6.2081 12.7058L3.91768 14.999L14.4975 14.9991C15.0103 14.9991 15.433 15.3851 15.4907 15.8824Z" fill="#AEAEAE"/>
</svg>
