<svg width="12" height="14" viewBox="0 0 12 14" fill="none" xmlns="http://www.w3.org/2000/svg">
<path d="M6.00011 0.33075C8.70004 0.33075 10.9046 2.46058 10.9973 5.16346L11.0001 5.33075V8.06209L11.9201 10.1661C11.9662 10.2714 11.9899 10.385 11.9899 10.5C11.9899 10.9602 11.6168 11.3333 11.1566 11.3333L8.00011 11.3343C8.00011 12.4388 7.10471 13.3343 6.00011 13.3343C4.93498 13.3343 4.06434 12.5016 4.00351 11.4518L3.99981 11.3328L0.850029 11.3333C0.735802 11.3333 0.622796 11.3098 0.518022 11.2643C0.0958889 11.0809 -0.0976777 10.5901 0.0856823 10.168L1.00012 8.06269V5.33068C1.00052 2.56082 3.23484 0.33075 6.00011 0.33075ZM6.99984 11.3328L5.00011 11.3343C5.00011 11.8866 5.44784 12.3343 6.00011 12.3343C6.51991 12.3343 6.94711 11.9377 6.99551 11.4306L6.99984 11.3328ZM6.00011 1.33075C3.78668 1.33075 2.00044 3.11359 2.00012 5.33075V8.27049L1.10413 10.3333H10.9018L10.0001 8.27116L10.0002 5.33932L9.99771 5.18919C9.92364 3.03354 8.16118 1.33075 6.00011 1.33075Z" fill="#272343"/>
</svg>
