<svg width="18" height="14" viewBox="0 0 18 14" fill="none" xmlns="http://www.w3.org/2000/svg">
<path d="M11.3389 4.70689C11.108 4.45032 10.7128 4.42952 10.4563 4.66044L8.37293 6.53541C8.24118 6.654 8.16602 6.82283 8.16602 6.99999C8.16602 7.17716 8.24118 7.34599 8.37293 7.46458L10.4563 9.33958C10.7128 9.57049 11.108 9.54966 11.3389 9.29308C11.5698 9.0365 11.549 8.64133 11.2924 8.41041L10.4198 7.62499H13.3743C13.7195 7.62499 13.9993 7.34516 13.9993 6.99999C13.9993 6.65483 13.7195 6.37499 13.3743 6.37499H10.4198L11.2924 5.58958C11.549 5.35866 11.5698 4.96346 11.3389 4.70689ZM0.666016 2.62499C0.666016 1.35934 1.69203 0.333328 2.95768 0.333328H15.041C16.3067 0.333328 17.3327 1.35934 17.3327 2.62499V11.375C17.3327 12.6407 16.3067 13.6667 15.041 13.6667H2.95768C1.69203 13.6667 0.666016 12.6407 0.666016 11.375V2.62499ZM6.49792 1.58333V12.4167H15.041C15.6163 12.4167 16.0827 11.9503 16.0827 11.375V2.62499C16.0827 2.04969 15.6163 1.58333 15.041 1.58333H6.49792Z" fill="#FF5141"/>
</svg>
