<svg width="14" height="18" viewBox="0 0 14 18" fill="none" xmlns="http://www.w3.org/2000/svg">
<path d="M11.7948 10.6668C12.8298 10.6668 13.6688 11.5058 13.6688 12.5409V13.0204C13.6688 13.7657 13.4025 14.4863 12.9179 15.0525C11.6101 16.5804 9.62076 17.3344 6.99968 17.3344C4.3781 17.3344 2.38975 16.5802 1.0845 15.0516C0.601363 14.4858 0.335938 13.7663 0.335938 13.0223V12.5409C0.335938 11.5058 1.17498 10.6668 2.21 10.6668H11.7948ZM11.7948 11.9168H2.21C1.86534 11.9168 1.58594 12.1963 1.58594 12.5409V13.0223C1.58594 13.4687 1.7452 13.9004 2.03507 14.2398C3.0795 15.4629 4.71773 16.0844 6.99968 16.0844C9.2816 16.0844 10.9213 15.4629 11.9683 14.2397C12.2591 13.8999 12.4188 13.4675 12.4188 13.0204V12.5409C12.4188 12.1963 12.1394 11.9168 11.7948 11.9168ZM6.99968 0.670746C9.30085 0.670746 11.1663 2.53623 11.1663 4.83741C11.1663 7.1386 9.30085 9.0041 6.99968 9.0041C4.69846 9.0041 2.83298 7.1386 2.83298 4.83741C2.83298 2.53623 4.69846 0.670746 6.99968 0.670746ZM6.99968 1.92075C5.38885 1.92075 4.08298 3.22659 4.08298 4.83741C4.08298 6.44825 5.38885 7.7541 6.99968 7.7541C8.61051 7.7541 9.91635 6.44825 9.91635 4.83741C9.91635 3.22659 8.61051 1.92075 6.99968 1.92075Z" fill="#2D334A"/>
</svg>
