<svg width="16" height="16" viewBox="0 0 16 16" fill="none" xmlns="http://www.w3.org/2000/svg">
<path d="M12.1667 0.0817108C13.7783 0.0817108 15.0848 1.3882 15.0848 2.99985C15.0848 4.61149 13.7783 5.91799 12.1667 5.91799C11.3083 5.91799 10.5366 5.54744 10.0027 4.95758L6.20379 7.12792C6.28988 7.40325 6.33625 7.69617 6.33625 7.99984C6.33625 8.30359 6.28988 8.59642 6.20379 8.87175L10.0019 11.043C10.5358 10.4526 11.3079 10.0817 12.1667 10.0817C13.7783 10.0817 15.0848 11.3882 15.0848 12.9998C15.0848 14.6115 13.7783 15.918 12.1667 15.918C10.555 15.918 9.2485 14.6115 9.2485 12.9998C9.2485 12.6962 9.29492 12.4033 9.381 12.1279L5.58293 9.95675C5.04894 10.5471 4.27686 10.918 3.41814 10.918C1.8065 10.918 0.5 9.6115 0.5 7.99984C0.5 6.38817 1.8065 5.08171 3.41814 5.08171C4.27644 5.08171 5.0482 5.45226 5.58216 6.04212L9.381 3.87177C9.29492 3.59643 9.2485 3.30356 9.2485 2.99985C9.2485 1.3882 10.555 0.0817108 12.1667 0.0817108ZM12.1667 11.3317C11.2454 11.3317 10.4985 12.0786 10.4985 12.9998C10.4985 13.9212 11.2454 14.668 12.1667 14.668C13.0879 14.668 13.8348 13.9212 13.8348 12.9998C13.8348 12.0786 13.0879 11.3317 12.1667 11.3317ZM3.41814 6.33171C2.49685 6.33171 1.75 7.07859 1.75 7.99984C1.75 8.92117 2.49685 9.668 3.41814 9.668C4.33943 9.668 5.08628 8.92117 5.08628 7.99984C5.08628 7.07859 4.33943 6.33171 3.41814 6.33171ZM12.1667 1.33171C11.2454 1.33171 10.4985 2.07856 10.4985 2.99985C10.4985 3.92114 11.2454 4.66799 12.1667 4.66799C13.0879 4.66799 13.8348 3.92114 13.8348 2.99985C13.8348 2.07856 13.0879 1.33171 12.1667 1.33171Z" fill="#2D334A"/>
</svg>
