<svg width="16" height="14" viewBox="0 0 16 14" fill="none" xmlns="http://www.w3.org/2000/svg">
<path d="M15.8538 7.35377L14.3538 8.85377C14.3073 8.90026 14.2522 8.93714 14.1915 8.9623C14.1308 8.98746 14.0657 9.00041 14 9.00041C13.9343 9.00041 13.8692 8.98746 13.8085 8.9623C13.7478 8.93714 13.6927 8.90026 13.6463 8.85377L12.1463 7.35377C12.0524 7.25995 11.9997 7.1327 11.9997 7.00002C11.9997 6.86734 12.0524 6.74009 12.1463 6.64627C12.2401 6.55245 12.3673 6.49974 12.5 6.49974C12.6327 6.49974 12.7599 6.55245 12.8538 6.64627L13.5 7.29315V7.00002C13.5006 5.83542 13.1315 4.70069 12.4458 3.7593C11.7602 2.81792 10.7934 2.11847 9.68481 1.76172C8.57619 1.40497 7.38294 1.40933 6.27696 1.77418C5.17098 2.13902 4.20936 2.84552 3.53063 3.7919C3.45322 3.89964 3.33618 3.97222 3.20525 3.99367C3.07433 4.01512 2.94025 3.98368 2.8325 3.90627C2.72476 3.82886 2.65218 3.71182 2.63073 3.5809C2.60928 3.44997 2.64072 3.31589 2.71813 3.20815C3.52031 2.08972 4.6568 1.2548 5.96389 0.823657C7.27098 0.392515 8.68119 0.38741 9.99137 0.809077C11.3015 1.23074 12.4441 2.05742 13.2543 3.17C14.0646 4.28259 14.5007 5.62366 14.5 7.00002V7.29315L15.1463 6.64627C15.2401 6.55245 15.3673 6.49974 15.5 6.49974C15.6327 6.49974 15.7599 6.55245 15.8538 6.64627C15.9476 6.74009 16.0003 6.86734 16.0003 7.00002C16.0003 7.1327 15.9476 7.25995 15.8538 7.35377ZM13.28 10.7913C12.4776 11.9089 11.3413 12.743 10.0346 13.1736C8.72792 13.6043 7.3183 13.6092 6.00865 13.1877C4.699 12.7662 3.55686 11.9401 2.74665 10.8281C1.93644 9.71617 1.49995 8.37583 1.5 7.00002V6.7069L0.853754 7.35377C0.759933 7.44759 0.632685 7.5003 0.500003 7.5003C0.367321 7.5003 0.240074 7.44759 0.146253 7.35377C0.0524331 7.25995 -0.000274658 7.1327 -0.000274658 7.00002C-0.000274658 6.86734 0.0524331 6.74009 0.146253 6.64627L1.64625 5.14627C1.69269 5.09978 1.74783 5.0629 1.80853 5.03774C1.86923 5.01258 1.9343 4.99963 2 4.99963C2.06571 4.99963 2.13077 5.01258 2.19147 5.03774C2.25217 5.0629 2.30732 5.09978 2.35375 5.14627L3.85375 6.64627C3.94757 6.74009 4.00028 6.86734 4.00028 7.00002C4.00028 7.1327 3.94757 7.25995 3.85375 7.35377C3.75993 7.44759 3.63269 7.5003 3.5 7.5003C3.36732 7.5003 3.24007 7.44759 3.14625 7.35377L2.5 6.7069V7.00002C2.49882 8.34639 2.99366 9.64602 3.89 10.6506C4.44765 9.84257 5.23176 9.21741 6.14375 8.85377C5.65387 8.46793 5.2964 7.93901 5.12105 7.34058C4.9457 6.74215 4.96119 6.10395 5.16537 5.51474C5.36955 4.92552 5.75226 4.41457 6.26029 4.05295C6.76832 3.69133 7.37641 3.49701 8 3.49701C8.6236 3.49701 9.23169 3.69133 9.73972 4.05295C10.2477 4.41457 10.6305 4.92552 10.8346 5.51474C11.0388 6.10395 11.0543 6.74215 10.879 7.34058C10.7036 7.93901 10.3461 8.46793 9.85625 8.85377C10.7691 9.21747 11.5537 9.84338 12.1113 10.6525C12.2377 10.5105 12.3568 10.3622 12.4681 10.2081C12.5455 10.1004 12.6626 10.0278 12.7935 10.0064C12.9244 9.98492 13.0585 10.0164 13.1663 10.0938C13.274 10.1712 13.3466 10.2882 13.368 10.4191C13.3895 10.5501 13.358 10.6842 13.2806 10.7919L13.28 10.7913ZM8 8.50002C8.39557 8.50002 8.78225 8.38272 9.11115 8.16296C9.44004 7.9432 9.69639 7.63084 9.84776 7.26539C9.99914 6.89994 10.0387 6.4978 9.96158 6.10984C9.88441 5.72188 9.69392 5.36551 9.41422 5.08581C9.13451 4.8061 8.77815 4.61562 8.39019 4.53845C8.00222 4.46128 7.60009 4.50089 7.23464 4.65226C6.86918 4.80364 6.55683 5.05998 6.33707 5.38888C6.1173 5.71778 6 6.10446 6 6.50002C6 7.03045 6.21072 7.53916 6.58579 7.91424C6.96086 8.28931 7.46957 8.50002 8 8.50002ZM8 12.5C9.22028 12.4984 10.4055 12.092 11.37 11.3444C11.0083 10.7787 10.51 10.3132 9.92105 9.99068C9.33211 9.66821 8.67146 9.49918 8 9.49918C7.32855 9.49918 6.6679 9.66821 6.07896 9.99068C5.49001 10.3132 4.99171 10.7787 4.63 11.3444C5.59302 12.0947 6.77923 12.5014 8 12.5Z" fill="#272343"/>
</svg>
