<svg width="17" height="17" viewBox="0 0 17 17" fill="none" xmlns="http://www.w3.org/2000/svg">
<path d="M14.4588 0.666672C15.4944 0.666672 16.3338 1.50614 16.3338 2.54167V7.09331C16.3338 7.81151 16.0486 8.50026 15.5408 9.00817L8.45665 16.0941C7.39874 17.1498 5.68561 17.1506 4.62631 16.0953L0.908229 12.3827C-0.150496 11.3261 -0.151854 9.61117 0.905079 8.55267L7.98815 1.46112C8.49615 0.95248 9.18549 0.666672 9.9044 0.666672H14.4588ZM14.4588 1.91667H9.9044C9.51732 1.91667 9.14607 2.07056 8.87257 2.34445L1.77909 9.44651C1.22056 10.0173 1.2248 10.9326 1.79135 11.4981L5.50904 15.2102C6.07976 15.7788 7.0034 15.7783 7.57315 15.2098L14.6568 8.12434C14.9302 7.85092 15.0838 7.48001 15.0838 7.09331V2.54167C15.0838 2.1965 14.804 1.91667 14.4588 1.91667ZM12.1672 3.58516C12.8575 3.58516 13.4172 4.14479 13.4172 4.83514C13.4172 5.52548 12.8575 6.08511 12.1672 6.08511C11.4768 6.08511 10.9172 5.52548 10.9172 4.83514C10.9172 4.14479 11.4768 3.58516 12.1672 3.58516Z" fill="#2D334A"/>
</svg>
