<svg width="48" height="48" viewBox="0 0 48 48" fill="none" xmlns="http://www.w3.org/2000/svg">
<rect width="48" height="48" rx="8" fill="#272343"/>
<path d="M25.2673 16.2089C24.9674 15.9232 24.4926 15.9348 24.2069 16.2347C23.9212 16.5346 23.9328 17.0093 24.2327 17.295L30.4841 23.2496H15.75C15.3358 23.2496 15 23.5854 15 23.9996C15 24.4138 15.3358 24.7496 15.75 24.7496H30.4842L24.2327 30.7043C23.9328 30.99 23.9212 31.4648 24.2069 31.7647C24.4926 32.0646 24.9674 32.0762 25.2673 31.7905L32.6862 24.7238C32.8551 24.5629 32.9551 24.3576 32.9861 24.1443C32.9952 24.0975 33 24.0491 33 23.9996C33 23.9501 32.9952 23.9016 32.986 23.8547C32.955 23.6415 32.855 23.4364 32.6862 23.2756L25.2673 16.2089Z" fill="white"/>
</svg>
